<?xml version="1.0" encoding="iso-8859-1"?>
<!-- Generator: Adobe Illustrator 19.0.0, SVG Export Plug-In . SVG Version: 6.00 Build 0)  -->
<svg version="1.1" id="Capa_1" xmlns="http://www.w3.org/2000/svg" xmlns:xlink="http://www.w3.org/1999/xlink" x="0px" y="0px"
	 viewBox="0 0 451.594 451.594" style="enable-background:new 0 0 451.594 451.594;" xml:space="preserve">
<path style="fill:#1185E0;" d="M408.654,451.594H278.042c-8.882,0-15.673-6.792-15.673-15.673V320.982h-73.143v114.939
	c0,8.882-6.792,15.673-15.673,15.673H42.94c-8.882,0-15.673-6.792-15.673-15.673V188.28c0-4.18,1.567-8.359,4.702-11.494
	L209.601,4.378c5.747-5.747,15.151-5.747,21.42-0.522l188.082,172.408c3.135,3.135,5.225,7.314,5.225,11.494v247.641
	C424.328,444.802,417.536,451.594,408.654,451.594z M293.715,420.247h99.265V195.072L221.095,37.292L58.613,195.072v225.176h99.265
	V305.308c0-8.882,6.792-15.673,15.673-15.673h104.49c8.882,0,15.673,6.792,15.673,15.673V420.247z"/>
<g>
</g>
<g>
</g>
<g>
</g>
<g>
</g>
<g>
</g>
<g>
</g>
<g>
</g>
<g>
</g>
<g>
</g>
<g>
</g>
<g>
</g>
<g>
</g>
<g>
</g>
<g>
</g>
<g>
</g>
</svg>
